HIERARCHY
ROOT root
{
	OFFSET 0.000000 0.000000 0.000000
	CHANNELS 6 Xposition Yposition Zposition Zrotation Yrotation Xrotation
	JOINT lhip
	{
		OFFSET 0.058581 -0.082280 -0.017664
		CHANNELS 3 Zrotation Yrotation Xrotation
		JOINT lknee
		{
			OFFSET 0.043451 -0.386469 0.008037
			CHANNELS 3 Zrotation Yrotation Xrotation
			JOINT lankle
			{
				OFFSET -0.014790 -0.426874 -0.037428
				CHANNELS 3 Zrotation Yrotation Xrotation
				JOINT ltoe
				{
					OFFSET 0.041054 -0.060286 0.122042
					CHANNELS 3 Zrotation Yrotation Xrotation
					End Site
					{
						OFFSET 0.000000 0.000000 0.000000
					}
				}
			}
		}
	}
	JOINT rhip
	{
		OFFSET -0.060310 -0.090513 -0.013543
		CHANNELS 3 Zrotation Yrotation Xrotation
		JOINT rknee
		{
			OFFSET -0.043257 -0.383688 -0.004843
			CHANNELS 3 Zrotation Yrotation Xrotation
			JOINT rankle
			{
				OFFSET 0.019056 -0.420046 -0.034562
				CHANNELS 3 Zrotation Yrotation Xrotation
				JOINT rtoe
				{
					OFFSET -0.034840 -0.062106 0.130323
					CHANNELS 3 Zrotation Yrotation Xrotation
					End Site
					{
						OFFSET 0.000000 0.000000 0.000000
					}
				}
			}
		}
	}
	JOINT lowerback
	{
		OFFSET 0.004439 0.124404 -0.038385
		CHANNELS 3 Zrotation Yrotation Xrotation
		JOINT upperback
		{
			OFFSET 0.004488 0.137956 0.026820
			CHANNELS 3 Zrotation Yrotation Xrotation
			JOINT chest
			{
				OFFSET -0.002265 0.056032 0.002855
				CHANNELS 3 Zrotation Yrotation Xrotation
				JOINT lowerneck
				{
					OFFSET -0.013390 0.211636 -0.033468
					CHANNELS 3 Zrotation Yrotation Xrotation
					JOINT upperneck
					{
						OFFSET 0.010113 0.088937 0.050410
						CHANNELS 3 Zrotation Yrotation Xrotation
						End Site
						{
							OFFSET 0.000000 0.000000 0.000000
						}
					}
				}
				JOINT lclavicle
				{
					OFFSET 0.071702 0.114000 -0.018898
					CHANNELS 3 Zrotation Yrotation Xrotation
					JOINT lshoulder
					{
						OFFSET 0.122921 0.045205 -0.019046
						CHANNELS 3 Zrotation Yrotation Xrotation
						JOINT lelbow
						{
							OFFSET 0.255332 -0.015649 -0.022946
							CHANNELS 3 Zrotation Yrotation Xrotation
							JOINT lwrist
							{
								OFFSET 0.265709 0.012698 -0.007375
								CHANNELS 3 Zrotation Yrotation Xrotation
								End Site
								{
									OFFSET 0.000000 0.000000 0.000000
								}
							}
						}
					}
				}
				JOINT rclavicle
				{
					OFFSET -0.082954 0.112472 -0.023707
					CHANNELS 3 Zrotation Yrotation Xrotation
					JOINT rshoulder
					{
						OFFSET -0.113228 0.046853 -0.008472
						CHANNELS 3 Zrotation Yrotation Xrotation
						JOINT relbow
						{
							OFFSET -0.260127 -0.014369 -0.031269
							CHANNELS 3 Zrotation Yrotation Xrotation
							JOINT rwrist
							{
								OFFSET -0.269108 0.006794 -0.006027
								CHANNELS 3 Zrotation Yrotation Xrotation
								End Site
								{
									OFFSET 0.000000 0.000000 0.000000
								}
							}
						}
					}
				}
			}
		}
	}
}
MOTION
Frames: 9
Frame Time: 0.033333
0.557606 0.234201 0.989478 88.459335 3.375427 96.356585 5.537373 4.322121 -2.145861 3.669028 -2.623073 -8.403795 -1.292583 11.725778 -3.062405 0.000000 -0.000000 0.000000 -1.339212 -2.096539 -6.175704 -1.966442 2.085336 -0.379517 5.032059 -7.369827 -3.148205 0.000000 -0.000000 0.000000 0.695889 0.609905 -1.030187 2.073430 -2.464968 -1.642671 -1.105732 1.511892 -3.578628 1.068164 -6.729960 5.465429 5.438383 -5.295312 -6.585927 -18.070785 10.820429 -8.907635 -65.699448 -5.540551 21.634231 11.821170 -6.738233 4.635329 -9.821648 -8.416336 6.498807 19.127116 -8.076526 -6.345089 59.086289 7.138657 13.884211 -3.242514 5.917408 1.552311 8.451303 2.422507 0.088019 
0.557630 0.234213 0.989414 88.444055 3.390827 96.306304 5.554545 4.324421 -2.090742 3.670972 -2.616814 -8.398354 -1.295261 11.708586 -3.056065 0.000000 -0.000000 0.000000 -1.323779 -2.108036 -6.125501 -1.971297 2.081868 -0.370802 5.100904 -7.344032 -3.165569 0.000000 -0.000000 0.000000 0.700486 0.621346 -0.910948 2.108543 -2.472627 -1.822696 -1.018216 1.529670 -3.456561 1.005262 -6.681228 5.546350 5.425324 -5.369498 -6.677726 -17.979502 10.584192 -8.799377 -65.768339 -5.519573 21.594523 11.684947 -6.602671 4.570836 -9.728347 -8.433145 6.284125 19.015616 -7.773710 -6.194464 59.152699 7.061877 13.916868 -3.418604 5.859642 1.392972 8.415122 2.515487 -0.139066 
0.557625 0.234290 0.989282 88.427227 3.432776 96.192357 5.586387 4.336355 -1.983513 3.690676 -2.584220 -8.383507 -1.313473 11.663638 -3.055147 0.000000 -0.000000 0.000000 -1.299530 -2.105625 -6.038852 -1.950296 2.036576 -0.304946 5.200974 -7.248580 -3.241481 0.000000 -0.000000 0.000000 0.691306 0.624058 -0.752533 2.223685 -2.522137 -2.005613 -0.828896 1.523198 -3.279838 0.757010 -6.501970 5.759833 5.396064 -5.590278 -6.927543 -17.763820 9.973410 -8.534528 -65.905627 -5.479090 21.604028 11.243215 -6.253134 4.185286 -9.365673 -8.509947 5.839282 18.695901 -6.939942 -5.821028 59.303777 6.959824 14.076486 -3.785940 5.559615 0.855434 8.239169 2.707206 -0.711478 
0.558477 0.233644 0.988672 88.776588 3.561519 96.272166 5.798138 4.300633 -2.119596 3.615612 -2.739881 -8.406608 -1.525601 11.563737 -2.976674 0.000000 -0.000000 0.000000 -1.086076 -2.197573 -6.064354 -1.887667 1.781523 -0.210995 5.024318 -7.076273 -3.517671 0.000000 -0.000000 0.000000 0.710574 0.316684 -1.003092 2.389745 -2.643847 -1.996438 -0.576894 1.502617 -3.111131 0.378030 -6.284935 5.912666 5.258820 -5.922486 -7.070898 -18.087783 9.662136 -8.433372 -65.690988 -5.381851 21.547130 11.213447 -6.346727 4.106775 -8.935881 -8.556019 5.727318 18.486451 -5.726646 -5.331703 59.099262 7.079109 14.382194 -3.843816 4.521702 0.364739 8.379208 3.039615 -1.403634 
0.558512 0.233601 0.988555 88.772760 3.563057 96.273073 5.797879 4.292518 -2.121074 3.620489 -2.741373 -8.409185 -1.520366 11.570352 -2.971994 0.000000 -0.000000 0.000000 -1.079385 -2.189795 -6.051063 -1.891121 1.779074 -0.243583 5.012183 -7.086503 -3.512678 0.000000 -0.000000 0.000000 0.728107 0.338293 -0.962643 2.379043 -2.633687 -2.045097 -0.575435 1.508059 -3.129532 0.326244 -6.305428 5.952172 5.279505 -5.930261 -7.054126 -18.093231 9.618535 -8.391870 -65.699742 -5.384971 21.550902 11.242189 -6.350608 4.064332 -8.986321 -8.575336 5.673427 18.454895 -5.591260 -5.274124 59.124376 6.996849 14.435324 -3.945660 4.517590 0.232109 8.402951 3.095649 -1.599477 
0.558640 0.233545 0.988372 88.740232 3.579371 96.219306 5.803885 4.273308 -2.022517 3.637398 -2.734297 -8.469492 -1.482919 11.582153 -2.948778 0.000000 -0.000000 0.000000 -1.054709 -2.161933 -5.977663 -1.904534 1.753526 -0.281946 4.983373 -7.083475 -3.523312 0.000000 -0.000000 0.000000 0.787737 0.368290 -0.818504 2.383164 -2.626234 -2.115050 -0.535302 1.478053 -3.195394 0.133833 -6.322500 6.068887 5.343014 -5.947556 -7.062442 -18.130436 9.516214 -8.276354 -65.667111 -5.343553 21.501610 11.275184 -6.452677 3.920663 -9.182037 -8.632169 5.496369 18.276705 -5.024890 -5.036442 59.277122 6.760458 14.644914 -4.382825 4.551152 -0.281271 8.527369 3.287799 -2.297087 
0.558711 0.233505 0.988140 88.733450 3.619086 96.115928 5.825197 4.273056 -1.904652 3.637339 -2.756160 -8.506202 -1.422883 11.610655 -2.916019 0.000000 -0.000000 0.000000 -1.013219 -2.134507 -5.906751 -1.907349 1.712709 -0.209062 4.960780 -7.074214 -3.577255 0.000000 -0.000000 0.000000 0.825355 0.366428 -0.602605 2.413368 -2.651470 -2.227809 -0.446172 1.442454 -3.244025 -0.103388 -6.388638 6.116677 5.424950 -6.013100 -6.997501 -18.225412 9.379875 -8.137636 -65.633614 -5.321098 21.442768 11.373675 -6.516971 3.780575 -9.329103 -8.690009 5.393764 18.166933 -4.140463 -4.713454 59.286738 6.499946 14.957347 -4.861806 4.329543 -0.864741 8.647997 3.517858 -3.006635 
0.558672 0.233356 0.988013 88.758876 3.658659 96.065209 5.851610 4.262352 -1.875181 3.656723 -2.783836 -8.515215 -1.421510 11.601936 -2.931181 0.000000 -0.000000 0.000000 -0.947898 -2.154612 -5.879147 -1.928223 1.684765 -0.163595 4.956990 -7.064022 -3.615570 0.000000 -0.000000 0.000000 0.710858 0.283377 -0.598959 2.523393 -2.754249 -2.160089 -0.255970 1.448007 -3.256080 -0.304196 -6.278118 6.172583 5.446826 -6.050260 -6.936970 -18.266126 9.198372 -8.021542 -65.595484 -5.248911 21.481949 11.343720 -6.640333 3.566186 -9.132210 -8.589398 5.437445 18.189641 -3.008196 -4.331752 59.069969 6.312775 15.317184 -5.199865 3.928633 -1.644269 8.614265 3.738561 -3.651222 
0.558632 0.233094 0.987861 88.791685 3.612417 96.236829 5.742559 4.222055 -2.129030 3.708389 -2.783441 -8.451072 -1.459564 11.628816 -2.888408 0.000000 -0.000000 0.000000 -0.968574 -2.112839 -6.077993 -1.940497 1.695098 -0.147286 4.937118 -7.129300 -3.604363 0.000000 -0.000000 0.000000 0.607506 0.222855 -0.908127 2.641777 -2.855241 -1.934739 -0.226043 1.391433 -3.423011 -0.526489 -6.107067 6.354883 5.504853 -6.144467 -6.975389 -18.345809 9.180064 -8.114340 -65.464327 -5.145722 21.630674 11.218933 -6.591807 3.156153 -9.015081 -8.522973 5.699223 18.359130 -2.325491 -4.196343 58.640302 6.183703 15.478238 -5.067344 3.602218 -2.200424 8.406089 3.837153 -3.488015 
